<svg xmlns="http://www.w3.org/2000/svg" viewBox="0 0 128 128" role="img" aria-label="ByteDance">
  <rect width="128" height="128" rx="22" fill="#fff"/>
  <g fill="#050505">
    <rect x="16" y="54" width="25" height="13" rx="3"/>
    <rect x="16" y="73" width="25" height="13" rx="3"/>
    <rect x="16" y="92" width="25" height="13" rx="3"/>
    <rect x="47" y="35" width="28" height="13" rx="3"/>
    <rect x="47" y="54" width="25" height="13" rx="3"/>
    <rect x="47" y="92" width="25" height="13" rx="3"/>
    <rect x="47" y="111" width="28" height="13" rx="3"/>
    <rect x="78" y="54" width="25" height="13" rx="3"/>
    <rect x="78" y="73" width="25" height="13" rx="3"/>
    <rect x="78" y="111" width="25" height="13" rx="3"/>
    <rect x="109" y="35" width="25" height="13" rx="3" transform="translate(-7 0)"/>
    <rect x="109" y="73" width="25" height="13" rx="3" transform="translate(-7 0)"/>
    <rect x="109" y="92" width="25" height="13" rx="3" transform="translate(-7 0)"/>
  </g>
</svg>
